<?xml version="1.0" encoding="UTF-8"?>
<svg width="13px" height="13px" viewBox="0 0 13 13" version="1.1" xmlns="http://www.w3.org/2000/svg" xmlns:xlink="http://www.w3.org/1999/xlink">
    <!-- Generator: Sketch 50.2 (55047) - http://www.bohemiancoding.com/sketch -->
    <title>Group</title>
    <desc>Created with Sketch.</desc>
    <defs></defs>
    <g id="Symbols" stroke="none" stroke-width="1" fill="none" fill-rule="evenodd">
        <g id="UI/-Icons/-Digi-Close-Black-" transform="translate(-6.000000, -5.000000)" fill="#272727">
            <g id="Group" transform="translate(6.000000, 5.000000)">
                <path d="M13.3619161,5.56820909 L-0.413083865,5.56820909 C-1.02908386,5.56820909 -1.53108386,6.06920909 -1.53108386,6.75120909 C-1.53108386,7.36720909 -1.02908386,7.86920909 -0.413083865,7.86920909 L13.3619161,7.86920909 C13.9779161,7.86920909 14.4789161,7.36720909 14.4789161,6.68520909 C14.4789161,6.06920909 13.9779161,5.56820909 13.3619161,5.56820909" id="Fill-4" transform="translate(6.473916, 6.718709) rotate(-45.000000) translate(-6.473916, -6.718709) "></path>
                <path d="M-0.413083865,5.56820909 C-1.02908386,5.56820909 -1.53108386,6.06920909 -1.53108386,6.75120909 C-1.53108386,7.36720909 -1.02908386,7.86920909 -0.413083865,7.86920909 L13.3619161,7.86920909 C13.9779161,7.86920909 14.4789161,7.36720909 14.4789161,6.68520909 C14.4789161,6.06920909 13.9779161,5.56820909 13.3619161,5.56820909 L-0.413083865,5.56820909 Z" id="Fill-4" transform="translate(6.473916, 6.718709) rotate(-312.000000) translate(-6.473916, -6.718709) "></path>
            </g>
        </g>
    </g>
</svg>